<svg width="1834" height="375" fill="none" xmlns="http://www.w3.org/2000/svg"><g clip-path="url(#a)"><path d="m52.813 353-17.465-22.94V353H22.696v-51.948H35.35v22.792l17.316-22.792h14.873l-20.127 25.456L68.278 353H52.812Zm96.034-9.176h-19.388L126.351 353h-13.246l18.796-51.948h14.652L165.349 353h-13.394l-3.108-9.176Zm-3.256-9.768-6.438-19.018-6.364 19.018h12.802Zm99.146-7.696c3.009.641 5.426 2.146 7.252 4.514 1.825 2.319 2.738 4.983 2.738 7.992 0 4.341-1.53 7.795-4.588 10.36-3.01 2.516-7.228 3.774-12.654 3.774h-24.198v-51.948h23.384c5.278 0 9.398 1.209 12.358 3.626 3.009 2.417 4.514 5.698 4.514 9.842 0 3.059-.814 5.599-2.442 7.622-1.579 2.023-3.7 3.429-6.364 4.218Zm-18.796-4.292h8.288c2.072 0 3.65-.444 4.736-1.332 1.134-.937 1.702-2.294 1.702-4.07 0-1.776-.568-3.133-1.702-4.07-1.086-.937-2.664-1.406-4.736-1.406h-8.288v10.878Zm9.324 20.72c2.121 0 3.749-.469 4.884-1.406 1.184-.987 1.776-2.393 1.776-4.218 0-1.825-.617-3.256-1.85-4.292-1.184-1.036-2.837-1.554-4.958-1.554h-9.176v11.47h9.324Zm81.45-41.736v31.08c0 3.108.765 5.501 2.294 7.178 1.529 1.677 3.774 2.516 6.734 2.516s5.229-.839 6.808-2.516c1.579-1.677 2.368-4.07 2.368-7.178v-31.08h12.654v31.006c0 4.637-.987 8.559-2.96 11.766-1.973 3.207-4.637 5.624-7.992 7.252-3.305 1.628-7.005 2.442-11.1 2.442s-7.77-.789-11.026-2.368c-3.207-1.628-5.747-4.045-7.622-7.252-1.875-3.256-2.812-7.203-2.812-11.84v-31.006h12.654Zm121.551 16.724c0 3.009-.691 5.772-2.072 8.288-1.382 2.467-3.503 4.465-6.364 5.994-2.862 1.529-6.414 2.294-10.656 2.294h-7.844V353h-12.654v-51.948h20.498c4.144 0 7.646.715 10.508 2.146 2.861 1.431 5.007 3.404 6.438 5.92 1.43 2.516 2.146 5.402 2.146 8.658Zm-20.054 6.512c2.417 0 4.218-.567 5.402-1.702 1.184-1.135 1.776-2.738 1.776-4.81 0-2.072-.592-3.675-1.776-4.81-1.184-1.135-2.985-1.702-5.402-1.702h-6.882v13.024h6.882Zm101.197 19.536h-19.388L496.913 353h-13.246l18.796-51.948h14.652L535.911 353h-13.394l-3.108-9.176Zm-3.256-9.768-6.438-19.018-6.364 19.018h12.802Zm105.065-33.004v10.138h-13.764V353H594.8v-41.81h-13.764v-10.138h40.182Zm61.222 10.138v10.508h16.946v9.768H682.44v11.396h19.166V353h-31.82v-51.948h31.82v10.138H682.44ZM798.51 353h-12.654l-21.164-32.042V353h-12.654v-51.948h12.654l21.164 32.19v-32.19h12.654V353Zm148.878-35.224c0 3.009-.691 5.772-2.072 8.288-1.381 2.467-3.503 4.465-6.364 5.994-2.861 1.529-6.413 2.294-10.656 2.294h-7.844V353h-12.654v-51.948h20.498c4.144 0 7.647.715 10.508 2.146 2.861 1.431 5.007 3.404 6.438 5.92s2.146 5.402 2.146 8.658Zm-20.054 6.512c2.417 0 4.218-.567 5.402-1.702 1.184-1.135 1.776-2.738 1.776-4.81 0-2.072-.592-3.675-1.776-4.81-1.184-1.135-2.985-1.702-5.402-1.702h-6.882v13.024h6.882Zm81.286-23.236v31.08c0 3.108.77 5.501 2.3 7.178 1.53 1.677 3.77 2.516 6.73 2.516 2.96 0 5.23-.839 6.81-2.516 1.58-1.677 2.37-4.07 2.37-7.178v-31.08h12.65v31.006c0 4.637-.98 8.559-2.96 11.766-1.97 3.207-4.63 5.624-7.99 7.252-3.3 1.628-7 2.442-11.1 2.442-4.09 0-7.77-.789-11.03-2.368-3.2-1.628-5.74-4.045-7.617-7.252-1.875-3.256-2.812-7.203-2.812-11.84v-31.006h12.649ZM1117.08 353l-10.81-19.61h-3.03V353h-12.65v-51.948h21.23c4.1 0 7.58.715 10.44 2.146 2.91 1.431 5.08 3.404 6.51 5.92 1.43 2.467 2.15 5.229 2.15 8.288 0 3.453-.99 6.537-2.96 9.25-1.93 2.713-4.79 4.637-8.59 5.772L1131.36 353h-14.28Zm-13.84-28.564h7.84c2.32 0 4.05-.567 5.18-1.702 1.19-1.135 1.78-2.738 1.78-4.81 0-1.973-.59-3.527-1.78-4.662-1.13-1.135-2.86-1.702-5.18-1.702h-7.84v12.876Zm149.32-23.384L1239.02 353h-15.32l-8.29-34.188-8.58 34.188h-15.32l-13.17-51.948h13.54l7.47 37.814 9.25-37.814h13.92l8.88 37.814 7.54-37.814h13.62Zm80.9 42.772h-19.39l-3.1 9.176h-13.25l18.8-51.948h14.65L1349.96 353h-13.39l-3.11-9.176Zm-3.25-9.768-6.44-19.018-6.37 19.018h12.81ZM1428.02 353l-17.47-22.94V353h-12.65v-51.948h12.65v22.792l17.32-22.792h14.87l-20.12 25.456L1443.48 353h-15.46Zm96.03-9.176h-19.38l-3.11 9.176h-13.25l18.8-51.948h14.65l18.8 51.948h-13.4l-3.11-9.176Zm-3.25-9.768-6.44-19.018-6.36 19.018h12.8ZM1614.98 353l-10.8-19.61h-3.03V353h-12.66v-51.948h21.24c4.1 0 7.57.715 10.43 2.146 2.92 1.431 5.09 3.404 6.52 5.92 1.43 2.467 2.14 5.229 2.14 8.288 0 3.453-.98 6.537-2.96 9.25-1.92 2.713-4.78 4.637-8.58 5.772L1629.27 353h-14.29Zm-13.83-28.564h7.84c2.32 0 4.05-.567 5.18-1.702 1.18-1.135 1.78-2.738 1.78-4.81 0-1.973-.6-3.527-1.78-4.662-1.13-1.135-2.86-1.702-5.18-1.702h-7.84v12.876Zm115.2-23.384v10.138h-13.76V353h-12.65v-41.81h-13.77v-10.138h40.18Zm80.91 42.772h-19.39l-3.11 9.176h-13.24l18.79-51.948h14.66L1813.76 353h-13.39l-3.11-9.176Zm-3.26-9.768-6.43-19.018-6.37 19.018h12.8ZM746.997 160.915l-52.195 52.925V281h-27.01V25.5h27.01v154.395L844.817 25.5h31.025L765.247 141.205 883.507 281h-32.12l-104.39-120.085Zm335.413 96.725V281H901.734V25.5h175.196v23.36H928.744v90.885h132.126v22.995H928.744v94.9h153.666Zm108.38 25.55c-18.98 0-37.23-3.042-54.75-9.125-17.27-6.083-30.66-14.113-40.15-24.09l10.59-20.805c9.25 9.247 21.53 16.79 36.86 22.63 15.33 5.597 31.15 8.395 47.45 8.395 22.88 0 40.03-4.137 51.47-12.41 11.44-8.517 17.15-19.467 17.15-32.85 0-10.22-3.16-18.372-9.49-24.455-6.08-6.083-13.62-10.707-22.63-13.87-9-3.407-21.53-7.057-37.59-10.95-19.22-4.867-34.55-9.49-45.99-13.87-11.44-4.623-21.29-11.558-29.57-20.805-8.03-9.247-12.04-21.778-12.04-37.595 0-12.897 3.41-24.577 10.22-35.04 6.81-10.707 17.28-19.223 31.39-25.55 14.11-6.327 31.63-9.49 52.56-9.49 14.6 0 28.83 2.068 42.7 6.205 14.12 3.893 26.28 9.368 36.5 16.425l-9.12 21.535c-10.71-7.057-22.14-12.288-34.31-15.695-12.17-3.65-24.09-5.475-35.77-5.475-22.39 0-39.3 4.38-50.74 13.14-11.19 8.517-16.79 19.588-16.79 33.215 0 10.22 3.05 18.493 9.13 24.82 6.33 6.083 14.11 10.828 23.36 14.235 9.49 3.163 22.14 6.692 37.96 10.585 18.74 4.623 33.82 9.247 45.26 13.87 11.68 4.38 21.53 11.193 29.56 20.44 8.03 9.003 12.05 21.292 12.05 36.865 0 12.897-3.53 24.698-10.59 35.405-6.81 10.463-17.39 18.858-31.75 25.185-14.36 6.083-32 9.125-52.93 9.125ZM1319.36 25.5h104.02c27.01 0 50.86 5.475 71.54 16.425 20.69 10.707 36.75 25.793 48.18 45.26 11.44 19.223 17.16 41.245 17.16 66.065s-5.72 46.963-17.16 66.43c-11.43 19.223-27.49 34.31-48.18 45.26-20.68 10.707-44.53 16.06-71.54 16.06h-104.02V25.5Zm102.56 232.14c22.39 0 41.98-4.38 58.77-13.14 16.79-9.003 29.81-21.292 39.05-36.865 9.25-15.817 13.87-33.945 13.87-54.385 0-20.44-4.62-38.447-13.87-54.02-9.24-15.817-22.26-28.105-39.05-36.865-16.79-9.003-36.38-13.505-58.77-13.505h-75.55v208.78h75.55Zm330.11-44.895h-142.35L1579.02 281h-28.1l116.8-255.5h26.64l116.8 255.5h-28.47l-30.66-68.255Zm-9.85-21.9-61.32-137.24-61.32 137.24h122.64Z" fill="#535E67"/><path d="m287.986 124.902 79.379-79.393 50.661 50.668-79.386 79.385-50.654-50.66Z" fill="#CCD6DD"/><path d="M240.972 270.348c-40.778-2.904-48.055-31.563-47.073-47.065 2.344-36.898 113.541-120.455 113.541-120.455l91.096 14.046c.007 0-126.554 155.687-157.564 153.474Z" fill="#68E090"/><path d="M417.262 46.986c-21.259-21.258-45.283-31.71-53.652-23.332-.095.094-.16.225-.248.32-.043.043-.109.058-.153.102L198.703 188.582c-10.277 10.277-15.939 23.944-15.939 38.485 0 14.534 5.662 28.202 15.939 38.478 10.283 10.283 23.951 15.938 38.484 15.938 14.541 0 28.202-5.654 38.478-15.931l164.507-164.507c.051-.051.065-.116.109-.167.095-.087.218-.146.313-.24 8.377-8.37-2.074-32.394-23.332-53.652Zm-157.026 203.13c-6.157 6.157-14.337 9.541-23.041 9.541-8.705 0-16.892-3.391-23.049-9.548s-9.548-14.337-9.548-23.049c0-8.704 3.391-16.884 9.541-23.041L366.943 51.222c4.527 8.325 11.353 17.423 20.007 26.083 8.653 8.653 17.757 15.48 26.083 20.007L260.236 250.116Z" fill="#8899A6"/><path d="M394.482 115.659c-.422 2.758-19.119 5.466-41.418 2.496-22.292-2.969-39.897-8.9-39.322-13.245.582-4.345 19.119-5.466 41.418-2.496 22.299 2.969 39.991 8.908 39.322 13.245Zm-133.591 73.528a5.78 5.78 0 0 1-8.173 0 5.779 5.779 0 1 1 8.173 0Zm24.14 19.031c-3.689 3.69-9.664 3.682-13.354 0a9.438 9.438 0 1 1 13.347-13.348 9.431 9.431 0 0 1 .007 13.348Zm12.205-38.747c-3.464 3.464-9.097 3.464-12.561 0-3.464-3.464-3.464-9.09 0-12.561 3.464-3.465 9.09-3.472 12.554 0 3.479 3.471 3.479 9.097.007 12.561Zm-49.984 64.467c-4.228 4.228-11.091 4.228-15.319 0-4.236-4.236-4.229-11.092 0-15.32 4.228-4.229 11.084-4.229 15.319 0 4.229 4.228 4.236 11.084 0 15.32Zm82.938-66.65a7.702 7.702 0 0 1-10.888 0c-3.005-3.006-2.998-7.882.008-10.888a7.693 7.693 0 0 1 10.887-.007 7.702 7.702 0 0 1-.007 10.895Zm-8.784-31.207a5.043 5.043 0 0 1-7.125 0 5.043 5.043 0 0 1 0-7.125 5.035 5.035 0 0 1 7.125 0 5.043 5.043 0 0 1 0 7.125Z" fill="#17BF63"/><path d="M431.223 82.955c3.365-3.365-5.075-17.26-18.851-31.036s-27.672-22.215-31.037-18.85c-3.365 3.365 5.075 17.26 18.851 31.036 13.777 13.776 27.672 22.215 31.037 18.85Z" fill="#CCD6DD"/><path d="M85.072 230.82h81.76V279H22.657V22.77h62.415v208.05Zm514.883-83.22c14.843 3.163 26.766 10.585 35.77 22.265 9.003 11.437 13.505 24.577 13.505 39.42 0 21.413-7.544 38.447-22.63 51.1C611.756 272.795 590.951 279 564.185 279H444.83V22.77h115.34c26.036 0 46.355 5.962 60.955 17.885C635.968 52.578 643.39 68.76 643.39 89.2c0 15.087-4.015 27.618-12.045 37.595-7.787 9.977-18.25 16.912-31.39 20.805Zm-92.71-21.17h40.88c10.22 0 18.006-2.19 23.36-6.57 5.596-4.623 8.395-11.315 8.395-20.075s-2.799-15.452-8.395-20.075c-5.354-4.623-13.14-6.935-23.36-6.935h-40.88v53.655Zm45.99 102.2c10.463 0 18.493-2.312 24.09-6.935 5.84-4.867 8.76-11.802 8.76-20.805s-3.042-16.06-9.125-21.17c-5.84-5.11-13.992-7.665-24.455-7.665h-45.26v56.575h45.99Z" fill="#17BF63"/></g><defs><clipPath id="a"><path fill="#fff" d="M0 0h1834v375H0z"/></clipPath></defs></svg>